<svg width="13" height="15" viewBox="0 0 13 15" fill="none" xmlns="http://www.w3.org/2000/svg">
<path d="M3.00001 11.382C4.47068 11.382 5.66668 10.186 5.66668 8.71532V1.95198L11.6667 4.13332V9.08665C11.2633 8.84629 10.8029 8.71809 10.3333 8.71532C8.86268 8.71532 7.66668 9.91132 7.66668 11.382C7.66668 12.8526 8.86268 14.0486 10.3333 14.0486C11.804 14.0486 13 12.8526 13 11.382V3.66665C13.0001 3.52987 12.958 3.39638 12.8795 3.28437C12.8011 3.17235 12.6899 3.08725 12.5613 3.04065L5.22801 0.373982C5.12734 0.33718 5.01927 0.32522 4.91299 0.339118C4.80671 0.353016 4.70535 0.392361 4.61753 0.453811C4.5297 0.515262 4.45801 0.597001 4.40853 0.692087C4.35906 0.787173 4.33327 0.892795 4.33334 0.999982V6.41998C3.92992 6.17962 3.4696 6.05142 3.00001 6.04865C1.52934 6.04865 0.333344 7.24465 0.333344 8.71532C0.333344 10.186 1.52934 11.382 3.00001 11.382Z" fill="#445668"/>
</svg>
