<svg width="97" height="24" viewBox="0 0 97 24" fill="none" xmlns="http://www.w3.org/2000/svg">
<path d="M44.2976 10.0447H46.3239C45.8828 7.49432 43.7031 5.73011 40.8778 5.73011C37.4901 5.73011 35.0163 8.28054 35.0163 12.4609C35.0163 16.603 37.4197 19.179 40.9673 19.179C44.1442 19.179 46.4134 17.0952 46.4134 13.7905V12.3011H41.2678V13.9311H44.5021C44.4574 16.0405 43.0639 17.3764 40.9673 17.3764C38.6598 17.3764 36.9787 15.6314 36.9787 12.4482C36.9787 9.2777 38.6726 7.53267 40.8906 7.53267C42.6293 7.53267 43.8054 8.49148 44.2976 10.0447ZM48.7672 19H50.6784V13.0043C50.6784 11.7259 51.6692 10.799 52.9924 10.799C53.3631 10.799 53.6507 10.8757 53.8809 10.9908L54.4945 9.39276C54.1685 9.17543 53.7466 9.0348 53.2097 9.0348C52.0463 9.0348 51.0748 9.68679 50.7168 10.7415H50.6145V9.18182H48.7672V19ZM59.7232 19.1982C62.4909 19.1982 64.2999 17.1719 64.2999 14.1357C64.2999 11.0803 62.4909 9.05398 59.7232 9.05398C56.9554 9.05398 55.1465 11.0803 55.1465 14.1357C55.1465 17.1719 56.9554 19.1982 59.7232 19.1982ZM59.7296 17.5938C57.9206 17.5938 57.0769 16.0149 57.0769 14.1293C57.0769 12.25 57.9206 10.652 59.7296 10.652C61.5257 10.652 62.3695 12.25 62.3695 14.1293C62.3695 16.0149 61.5257 17.5938 59.7296 17.5938ZM70.5689 19.1982C73.3366 19.1982 75.1456 17.1719 75.1456 14.1357C75.1456 11.0803 73.3366 9.05398 70.5689 9.05398C67.8011 9.05398 65.9922 11.0803 65.9922 14.1357C65.9922 17.1719 67.8011 19.1982 70.5689 19.1982ZM70.5753 17.5938C68.7663 17.5938 67.9226 16.0149 67.9226 14.1293C67.9226 12.25 68.7663 10.652 70.5753 10.652C72.3714 10.652 73.2152 12.25 73.2152 14.1293C73.2152 16.0149 72.3714 17.5938 70.5753 17.5938ZM85.3265 9.18182H83.2747L80.7946 16.7372H80.6923L78.2058 9.18182H76.1539L79.7207 19H81.7662L85.3265 9.18182ZM88.2605 22.8161C89.8457 22.8161 90.8748 21.9595 91.4309 20.4318L95.5218 9.18182H93.47L90.9835 16.8011H90.8812L88.3947 9.18182H86.3493L89.9416 19.1278L89.6603 19.9013C89.1809 21.1797 88.497 21.2884 87.4423 21.0071L86.9821 22.5923C87.1866 22.6882 87.666 22.8161 88.2605 22.8161Z" fill="#3B455A"/>
<path d="M3 7V6C3 5.20435 3.31607 4.44129 3.87868 3.87868C4.44129 3.31607 5.20435 3 6 3H18C18.7956 3 19.5587 3.31607 20.1213 3.87868C20.6839 4.44129 21 5.20435 21 6V7" stroke="#445668" stroke-width="2" stroke-linecap="round" stroke-linejoin="round"/>
<path d="M16 9V15" stroke="#445668" stroke-width="2" stroke-linecap="round" stroke-linejoin="round"/>
<path d="M20 10V14" stroke="#445668" stroke-width="2" stroke-linecap="round" stroke-linejoin="round"/>
<path d="M12 7.5V16.5" stroke="#445668" stroke-width="2" stroke-linecap="round" stroke-linejoin="round"/>
<path d="M8 9V15" stroke="#445668" stroke-width="2" stroke-linecap="round" stroke-linejoin="round"/>
<path d="M4 10V14" stroke="#445668" stroke-width="2" stroke-linecap="round" stroke-linejoin="round"/>
<path d="M3 17V18C3 18.7956 3.31607 19.5587 3.87868 20.1213C4.44129 20.6839 5.20435 21 6 21H18C18.7956 21 19.5587 20.6839 20.1213 20.1213C20.6839 19.5587 21 18.7956 21 18V17" stroke="#445668" stroke-width="2" stroke-linecap="round" stroke-linejoin="round"/>
</svg>
