<svg width="284" height="210" viewBox="0 0 284 210" fill="none" xmlns="http://www.w3.org/2000/svg">
<path opacity="0.16" d="M146.133 165.164C103.685 165.164 -5.92864 181.431 0.250931 186.233C9.66742 193.614 51.8945 207.015 62.4145 209.523C77.0542 203.36 107.878 187.738 126.417 187.308C144.956 186.878 203.662 183.51 192.553 190.891C181.445 198.2 177.399 206.513 188.507 209.523C199.542 212.533 254.496 196.337 265.458 198.917C276.345 201.497 286.645 196.982 280.171 191.966C273.697 186.878 265.163 178.923 275.021 176.917C284.953 174.91 289.22 168.747 273.256 167.386C257.292 166.024 227.056 170.252 221.906 165.164C216.61 160.004 156.138 165.164 146.133 165.164Z" fill="black"/>
<path d="M231.47 154.128L190.199 168.89C189.096 169.249 189.096 171.184 190.199 171.614L231.47 186.376C231.691 186.448 231.911 186.448 232.132 186.376L273.403 171.614C274.506 171.255 274.506 169.32 273.403 168.89L232.132 154.128C231.911 154.056 231.691 154.056 231.47 154.128Z" fill="#B3B3B3"/>
<path d="M273.403 168.89L232.132 154.128C231.911 154.056 231.691 154.056 231.47 154.128L190.199 168.89C189.905 169.034 189.684 169.249 189.537 169.535C189.684 169.822 189.905 170.037 190.199 170.18L231.47 184.943C231.691 185.014 231.911 185.014 232.132 184.943L273.403 170.18C273.697 170.037 273.918 169.822 274.065 169.535C273.918 169.249 273.697 168.962 273.403 168.89Z" fill="#E6E6E6"/>
<path d="M233.53 170.252L255.158 162.369L252.951 161.581L230.072 170.252H233.53Z" fill="#B3B3B3"/>
<path d="M233.603 40.113H230.072V170.252H233.603V40.113Z" fill="#CFD1D2"/>
<path d="M233.53 40.113H231.764V170.252H233.53V40.113Z" fill="#A9ABAC"/>
<path d="M226.32 78.0942L192.848 45.4877C189.831 42.5496 189.831 37.7482 192.848 34.81L226.32 2.20362C229.337 -0.73454 234.265 -0.73454 237.282 2.20362L270.754 34.81C273.771 37.7482 273.771 42.5496 270.754 45.4877L237.282 78.0942C234.265 81.0323 229.337 81.0323 226.32 78.0942Z" fill="#FFEF1B"/>
<path d="M226.32 78.954L192.848 46.3476C189.831 43.4095 189.831 38.6081 192.848 35.6699L226.32 3.06348C229.337 0.125323 234.265 0.125323 237.282 3.06348L270.754 35.6699C273.771 38.6081 273.771 43.4095 270.754 46.3476L237.282 78.954C234.265 81.9639 229.337 81.9639 226.32 78.954Z" fill="#FFCD26"/>
<path d="M231.764 75.7293C230.293 75.7293 228.822 75.156 227.718 74.0811L197.85 44.9861C195.643 42.8362 195.643 39.2531 197.85 37.1032L227.718 8.00828C229.925 5.85841 233.603 5.85841 235.81 8.00828L265.678 37.1032C267.885 39.2531 267.885 42.8362 265.678 44.9861L235.81 74.0811C234.707 75.2277 233.236 75.7293 231.764 75.7293ZM198.512 37.7482L199.174 38.3932C198.439 39.1098 198.071 40.0414 198.071 41.0447C198.071 42.0479 198.439 42.9796 199.174 43.6962L229.042 72.7911C229.778 73.5078 230.734 73.8661 231.764 73.8661C232.794 73.8661 233.751 73.5078 234.486 72.7911L264.428 43.6962C265.163 42.9796 265.531 42.0479 265.531 41.0447C265.531 40.0414 265.163 39.1098 264.428 38.3932L234.56 9.2982C233.824 8.58158 232.868 8.22327 231.838 8.22327C230.808 8.22327 229.852 8.58158 229.116 9.2982L199.248 38.3932L198.512 37.7482Z" fill="black"/>
<path d="M235.957 55.0188C235.957 57.312 234.045 59.1036 231.764 59.1036C229.41 59.1036 227.571 57.2404 227.571 55.0188C227.571 52.7256 229.484 50.9341 231.764 50.9341C234.118 50.9341 235.957 52.7973 235.957 55.0188Z" fill="black"/>
<path d="M231.764 22.9857C227.865 22.9857 225.217 27.2138 225.953 31.1552C226.615 35.1683 228.601 48.6409 231.764 48.6409C235.001 48.6409 236.914 35.1683 237.576 31.1552C238.312 27.1421 235.737 22.9857 231.764 22.9857Z" fill="black"/>
<path opacity="0.16" d="M272.741 37.6766L251.039 16.4645C259.499 24.204 251.186 71.5729 222.127 74.8694L228.38 80.9607C230.293 82.8239 233.383 82.8239 235.295 80.9607L272.814 44.4128C274.653 42.5496 274.653 39.5398 272.741 37.6766Z" fill="#773C16"/>
<path d="M62.1202 176.988H71.7574L91.9146 63.26H81.6889L62.1202 176.988Z" fill="#A2A3A3"/>
<path d="M79.2612 77.1625L83.1602 112.779L91.9146 63.26H81.6889L79.2612 77.1625Z" fill="#8B8D8D"/>
<path d="M84.1901 63.26H81.6888L101.405 186.376H103.906L84.1901 63.26Z" fill="#B3B3B3"/>
<path d="M79.1877 63.26H81.6889L62.1203 176.988H59.619L79.1877 63.26Z" fill="#B3B3B3"/>
<path d="M84.1901 63.26H91.9145L112.219 186.376H103.906L84.1901 63.26Z" fill="#CCCCCC"/>
<path opacity="0.31" d="M91.6203 109.984H99.6391L98.2413 101.671H90.2961L91.6203 109.984Z" fill="black"/>
<path opacity="0.31" d="M98.0206 149.828H106.186L104.789 141.515H96.6964L98.0206 149.828Z" fill="black"/>
<path d="M173.573 176.988H183.284L203.368 63.26H193.142L173.573 176.988Z" fill="#A2A3A3"/>
<path d="M190.788 77.1625L194.613 112.779L203.368 63.26H193.142L190.788 77.1625Z" fill="#8B8D8D"/>
<path d="M195.643 63.26H193.142L212.931 186.376H215.359L195.643 63.26Z" fill="#B3B3B3"/>
<path d="M190.641 63.26H193.142L173.573 176.988H171.146L190.641 63.26Z" fill="#B3B3B3"/>
<path d="M195.643 63.26H203.368L223.672 186.376H215.359L195.643 63.26Z" fill="#CCCCCC"/>
<path opacity="0.31" d="M209.474 149.828H217.639L216.242 141.515H208.149L209.474 149.828Z" fill="black"/>
<path opacity="0.31" d="M203.147 109.984H211.092L209.694 101.671H201.823L203.147 109.984Z" fill="black"/>
<path d="M76.76 106.759L72.1989 77.0192H215.433L219.994 106.759H76.76Z" fill="#F9A02C"/>
<path d="M79.9233 106.759L75.3622 77.0192H218.596L223.157 106.759H79.9233Z" fill="#FFCD26"/>
<path d="M83.3809 147.105L78.8198 117.294H221.98L226.541 147.105H83.3809Z" fill="#F9A02C"/>
<path d="M86.5443 147.105L81.9832 117.294H225.143L229.704 147.105H86.5443Z" fill="#FFCD26"/>
<path d="M89.8547 77.0192L79.9232 106.472V106.759H95.225L105.304 77.0192H89.8547Z" fill="#333333"/>
<path d="M119.281 77.0192L109.203 106.759H124.652L134.73 77.0192H119.281Z" fill="#333333"/>
<path d="M148.781 77.0192L138.703 106.759H154.078L164.157 77.0192H148.781Z" fill="#333333"/>
<path d="M178.208 77.0192L168.129 106.759H183.505L193.583 77.0192H178.208Z" fill="#333333"/>
<path d="M218.596 77.0192H207.634L197.556 106.759H212.931L219.994 86.0486L218.596 77.0192Z" fill="#333333"/>
<path d="M86.5441 147.105H99.6389L109.718 117.294H94.3422L85.8085 142.447L86.5441 147.105Z" fill="#333333"/>
<path d="M129.066 147.105L139.144 117.294H123.769L113.69 147.105H129.066Z" fill="#333333"/>
<path d="M158.492 147.105L168.571 117.294H153.195L143.117 147.105H158.492Z" fill="#333333"/>
<path d="M187.919 147.105L197.997 117.294H182.622L172.543 147.105H187.919Z" fill="#333333"/>
<path d="M217.345 147.105L225.879 121.952L225.143 117.294H212.048L201.97 147.105H217.345Z" fill="#333333"/>
<path d="M94.6366 89.6318C94.6366 90.4918 93.9009 91.2084 93.0181 91.2084C92.1353 91.2084 91.3997 90.4918 91.3997 89.6318C91.3997 88.7719 92.1353 88.0552 93.0181 88.0552C93.9009 87.9836 94.6366 88.7002 94.6366 89.6318Z" fill="#B3B3B3"/>
<path d="M206.678 89.6318C206.678 90.4918 205.942 91.2084 205.06 91.2084C204.177 91.2084 203.441 90.4918 203.441 89.6318C203.441 88.7719 204.177 88.0552 205.06 88.0552C205.942 87.9836 206.678 88.7002 206.678 89.6318Z" fill="#B3B3B3"/>
<path d="M212.048 134.492C212.942 134.492 213.667 133.787 213.667 132.916C213.667 132.045 212.942 131.339 212.048 131.339C211.155 131.339 210.43 132.045 210.43 132.916C210.43 133.787 211.155 134.492 212.048 134.492Z" fill="#B3B3B3"/>
<path d="M102.361 132.916C102.361 133.776 101.625 134.492 100.742 134.492C99.8597 134.492 99.124 133.776 99.124 132.916C99.124 132.056 99.8597 131.339 100.742 131.339C101.625 131.339 102.361 132.056 102.361 132.916Z" fill="#B3B3B3"/>
<path opacity="0.31" d="M79.9232 106.759H88.6041L88.9719 108.981C106.554 100.883 117.221 85.1887 121.856 77.0192H94.1215L91.9145 63.26H87.5006L82.4245 67.8464L83.8958 77.0192H75.4357H72.2723L76.8334 106.759H79.9232Z" fill="black"/>
<path d="M231.102 169.034L216.83 124.675C216.462 123.457 218.081 122.31 219.111 123.027L258.469 149.327C258.689 149.47 258.837 149.613 258.91 149.9L273.108 194.259C273.476 195.477 271.858 196.624 270.828 195.907L231.47 169.607C231.323 169.464 231.176 169.321 231.102 169.034Z" fill="#F47B2B"/>
<path d="M270.828 195.907L231.47 169.607C231.249 169.464 231.102 169.32 231.028 169.034L216.83 124.675C216.757 124.316 216.757 124.03 216.904 123.743C217.198 123.671 217.566 123.743 217.86 123.958L257.218 150.258C257.439 150.401 257.586 150.545 257.659 150.831L271.858 195.191C271.931 195.549 271.931 195.836 271.784 196.122C271.49 196.194 271.122 196.122 270.828 195.907Z" fill="#F68F2A"/>
<path opacity="0.31" d="M250.377 155.561C261.926 170.754 269.651 187.021 266.267 188.741C262.883 190.533 254.938 184.083 249.052 174.48C243.167 164.949 250.377 155.561 250.377 155.561Z" fill="#773C16"/>
<path d="M260.308 183.08C257.145 184.37 196.452 207.445 196.452 207.445L190.052 198.989L183.652 190.533C183.652 190.533 224.187 140.799 226.32 138.219C228.454 135.711 239.047 140.584 250.377 155.49C261.706 170.539 263.398 181.861 260.308 183.08Z" fill="#F47B2B"/>
<path d="M260.308 183.08C257.145 184.37 196.452 207.445 196.452 207.445L190.052 198.989L183.652 190.533C183.652 190.533 224.187 140.799 226.32 138.219C228.454 135.711 239.047 140.584 250.377 155.49C261.706 170.539 263.398 181.861 260.308 183.08Z" fill="#F47B2B"/>
<path d="M223.451 197.125C218.522 198.989 213.814 200.78 209.694 202.357C208.002 198.63 205.648 194.546 202.264 190.174C202.264 190.174 202.264 190.174 202.264 190.103H202.191C198.88 185.731 195.57 182.291 192.406 179.64C195.128 176.272 198.292 172.402 201.602 168.389C208.591 174.265 213.961 181.646 213.961 181.646H213.888H213.961C213.961 181.646 219.773 188.884 223.451 197.125Z" fill="white"/>
<path d="M236.914 192.037C235.442 186.734 232.573 180.07 226.835 172.545C226.835 172.545 226.835 172.545 226.835 172.474H226.762C221.023 164.949 215.432 160.219 210.651 157.353C214.035 153.196 217.198 149.327 219.773 146.173C229.631 151.763 238.532 164.017 238.532 164.017H238.459H238.532C238.532 164.017 247.875 175.913 250.45 186.734C246.698 188.311 241.99 190.103 236.914 192.037Z" fill="white"/>
<path opacity="0.21" d="M233.015 139.294C235.663 140.727 238.827 143.02 242.358 146.46L187.771 196.122L185.197 192.754L233.015 139.294Z" fill="white"/>
<path opacity="0.11" d="M196.452 207.373L193.73 203.718L193.436 202.5C193.436 202.5 235.81 182.005 242.284 179.067C248.758 176.128 258.616 170.754 253.393 159.646C262.074 172.545 263.103 181.933 260.308 183.008C257.218 184.298 196.452 207.373 196.452 207.373Z" fill="#773C16"/>
<path d="M196.379 207.373C197.188 206.8 194.981 202.572 191.45 197.914C187.919 193.256 184.461 189.959 183.652 190.533C182.843 191.106 185.05 195.334 188.581 199.992C192.112 204.65 195.57 207.947 196.379 207.373Z" fill="#FAA628"/>
<path d="M191.082 198.2C187.551 193.542 184.608 190.963 183.872 190.891C183.725 191.607 185.344 195.047 188.875 199.705C192.406 204.363 195.349 206.943 196.084 207.015C196.305 206.298 194.613 202.859 191.082 198.2Z" fill="#8F4816"/>
<path d="M188.949 199.777C185.417 195.119 183.799 191.679 183.946 190.963C184.461 191.034 186.006 192.252 188.066 194.474C187.477 195.477 187.33 197.412 189.758 200.78C189.39 200.422 189.169 200.135 188.949 199.777Z" fill="#773C16"/>
<path d="M56.4556 167.457L5.4741 184.656C4.14991 185.086 4.14991 187.379 5.4741 187.809L56.4556 205.008C56.6763 205.08 56.9705 205.08 57.2648 205.008L108.246 187.809C109.57 187.379 109.57 185.086 108.246 184.656L57.2648 167.457C56.9705 167.386 56.6763 167.386 56.4556 167.457Z" fill="#F47B2B"/>
<path d="M108.173 184.656L57.1912 167.457C56.9705 167.386 56.6763 167.386 56.382 167.457L5.40054 184.656C5.03271 184.8 4.73844 185.015 4.59131 185.373C4.73844 185.731 5.03271 185.946 5.40054 186.089L56.382 203.288C56.6027 203.36 56.897 203.36 57.1912 203.288L108.173 186.089C108.541 185.946 108.835 185.731 108.982 185.373C108.835 185.086 108.614 184.8 108.173 184.656Z" fill="#F68F2A"/>
<path opacity="0.31" d="M56.8235 193.614C78.7463 193.614 99.1241 189.601 98.462 185.373C97.7999 181.145 86.4707 178.422 73.5966 179.712C60.7225 180.93 56.8235 193.614 56.8235 193.614Z" fill="#773C16"/>
<path d="M89.119 183.94C88.1627 180.285 68.9619 110.987 68.9619 110.987H56.8234H44.685C44.685 110.987 25.4842 180.285 24.5278 183.94C23.645 187.523 35.2685 193.614 56.8234 193.614C78.3784 193.614 90.0018 187.523 89.119 183.94Z" fill="#F47B2B"/>
<path d="M89.119 183.94C88.1627 180.285 68.9619 110.987 68.9619 110.987H56.8234H44.685C44.685 110.987 25.4842 180.285 24.5278 183.94C23.645 187.523 35.2685 193.614 56.8234 193.614C78.3784 193.614 90.0018 187.523 89.119 183.94Z" fill="#F47B2B"/>
<path d="M77.5692 141.874C76.0243 136.284 74.553 130.909 73.2288 126.18C68.6677 127.183 63.2238 127.828 56.8235 127.828C56.8235 127.828 56.8235 127.828 56.8235 127.9V127.828C50.4968 127.828 45.0529 127.183 40.4918 126.251C39.1676 130.909 37.6963 136.356 36.1514 141.945C46.3771 144.167 56.8235 144.024 56.8235 144.024V143.952V144.024C56.8235 144.024 67.2699 144.167 77.5692 141.874Z" fill="white"/>
<path d="M81.7625 157.281C75.8772 159.574 67.7113 161.438 56.8235 161.438C56.8235 161.438 56.8235 161.438 56.8235 161.509V161.438C45.9357 161.438 37.7698 159.574 31.8845 157.281C30.2661 163.014 28.7947 168.46 27.6177 172.832C39.4619 177.848 56.8971 177.49 56.8971 177.49V177.418V177.49C56.8971 177.49 74.3323 177.777 86.1765 172.832C84.8523 168.389 83.381 163.014 81.7625 157.281Z" fill="white"/>
<path opacity="0.21" d="M29.9717 189.171C33.0615 190.533 37.4019 191.822 42.9194 192.611L52.6301 110.916H47.7012L29.9717 189.171Z" fill="white"/>
<path opacity="0.11" d="M68.9618 111.059H63.7386L62.4144 111.632C62.4144 111.632 71.7573 162.871 73.3022 170.61C74.9207 178.35 76.4656 190.676 62.6351 193.542C80.4382 192.539 89.9282 187.236 89.119 184.011C88.1626 180.356 68.9618 111.059 68.9618 111.059Z" fill="#773C16"/>
<path d="M56.8234 112.922C63.5273 112.922 68.9618 112.056 68.9618 110.987C68.9618 109.919 63.5273 109.052 56.8234 109.052C50.1195 109.052 44.6849 109.919 44.6849 110.987C44.6849 112.056 50.1195 112.922 56.8234 112.922Z" fill="#FAA628"/>
<path d="M56.8234 112.492C50.0553 112.492 45.7885 111.632 45.2 110.987C45.7885 110.342 50.0553 109.482 56.8234 109.482C63.5915 109.482 67.8584 110.342 68.4469 110.987C67.8584 111.632 63.518 112.492 56.8234 112.492Z" fill="#8F4816"/>
<path d="M56.8234 109.554C50.0553 109.554 45.7885 110.414 45.2 111.059C45.5678 111.489 47.7748 112.062 51.2324 112.349C51.8209 111.131 53.5129 109.769 58.2212 109.626C57.7798 109.554 57.2648 109.554 56.8234 109.554Z" fill="#773C16"/>
<path d="M120.605 65.0515C116.486 57.742 102.949 38.4648 78.8932 48.3542C55.7934 57.8853 54.8371 74.511 57.8533 86.5503C52.4829 91.9966 48.069 98.9479 53.3657 103.964C63.2972 113.424 103.685 85.762 110.747 79.6707C115.897 76.0159 118.766 72.7194 120.311 70.4979C121.488 68.9213 121.562 66.7714 120.605 65.0515Z" fill="#D48326"/>
<path d="M110.085 78.2376C103.023 84.3289 62.6351 111.991 52.7037 102.531C42.7722 93.0717 67.2698 76.8043 67.2698 76.8043L110.085 78.2376Z" fill="#F7972B"/>
<path d="M63.7387 94.2182C61.6053 94.0748 59.7661 92.7132 59.0304 90.7784C54.5429 78.8824 51.2324 58.0286 78.3048 46.9209C102.361 37.0315 115.897 56.3087 120.017 63.6183C120.973 65.3382 120.9 67.4881 119.723 69.1363C116.927 73.0777 109.865 80.5306 93.2388 87.3386C77.5692 93.7165 68.2998 94.5048 63.7387 94.2182Z" fill="#FDC155"/>
<path d="M68.0792 95.2932L69.8448 94.0033C69.8448 94.0033 61.0904 70.498 71.0954 56.8105C81.1004 43.1229 95.4459 44.4845 95.4459 44.4845C95.4459 44.4845 81.2476 41.1164 68.962 53.6573C56.6764 66.2699 68.0792 95.2932 68.0792 95.2932Z" fill="#F0922A"/>
<path d="M62.8559 95.4365C62.8559 95.4365 49.5404 64.0483 69.4033 50.5758C69.4033 50.5758 81.836 41.4746 95.5193 44.4845C95.5193 44.4845 84.6315 42.4062 74.8472 50.4324C64.9893 58.5303 60.4282 67.2015 68.0791 95.2931L62.8559 95.4365Z" fill="#FFD657"/>
<path d="M79.9968 93.2866L81.3946 91.4951C81.3946 91.4951 74.5529 71.0713 80.8061 59.7486C87.0592 48.4259 101.772 46.2044 101.772 46.2044C101.772 46.2044 89.7812 44.9145 81.1739 53.8723C72.5666 62.8301 74.7736 82.6089 74.7736 82.6089L79.9968 93.2866Z" fill="#F0922A"/>
<path d="M73.1552 94.8632C73.1552 94.8632 66.3871 76.7326 70.2861 65.0516C74.2587 53.2273 84.9994 45.1294 97.1378 44.7711L101.699 46.2044C101.699 46.2044 91.1789 45.9177 82.7924 54.3739C74.4058 62.8301 74.6265 76.5176 79.9968 93.2866C79.9968 93.2866 75.5093 94.5049 73.1552 94.8632Z" fill="#FFD657"/>
<path d="M59.6189 93.0716C59.6189 93.0716 58.9568 92.0683 58.5154 91.2084C58.074 90.3484 49.4668 70.4979 62.7823 57.312C62.7823 57.312 55.5728 62.1851 56.897 81.1039L59.6189 93.0716Z" fill="#FFD657"/>
<path d="M60.5017 92.9282C60.5017 92.9282 52.3359 67.4881 62.7087 57.3837C62.7087 57.3837 50.8645 65.5532 59.5454 93.1432L60.5017 92.9282Z" fill="#F0922A"/>
<path opacity="0.32" d="M55.0579 88.9152C55.0579 88.9152 48.6576 96.6547 53.8072 101.886C58.9569 107.117 81.5417 95.4364 81.5417 95.4364C81.5417 95.4364 62.1938 103.893 56.3085 100.166C50.4232 96.3681 55.0579 88.9152 55.0579 88.9152Z" fill="white"/>
<path opacity="0.32" d="M103.538 47.996C103.538 47.996 115.603 55.7355 118.472 63.7617C121.341 71.7879 103.17 80.8174 103.17 80.8174C103.17 80.8174 113.249 74.5111 112.219 64.2633C111.189 54.0873 103.538 47.996 103.538 47.996Z" fill="white"/>
</svg>
